<?xml version="1.0" encoding="UTF-8" standalone="no"?>
<!-- Created with Inkscape (http://www.inkscape.org/) -->

<svg
   version="1.1"
   id="svg1"
   width="62.720001"
   height="62.720001"
   viewBox="0 0 62.720001 62.720001"
   sodipodi:docname="start-here-system-red.svg"
   inkscape:version="1.3.2 (091e20ef0f, 2023-11-25, custom)"
   xmlns:inkscape="http://www.inkscape.org/namespaces/inkscape"
   xmlns:sodipodi="http://sodipodi.sourceforge.net/DTD/sodipodi-0.dtd"
   xmlns="http://www.w3.org/2000/svg"
   xmlns:svg="http://www.w3.org/2000/svg">
  <defs
     id="defs1" />
  <sodipodi:namedview
     id="namedview1"
     pagecolor="#505050"
     bordercolor="#eeeeee"
     borderopacity="1"
     inkscape:showpageshadow="0"
     inkscape:pageopacity="0"
     inkscape:pagecheckerboard="0"
     inkscape:deskcolor="#505050"
     inkscape:zoom="13.137755"
     inkscape:cx="31.321942"
     inkscape:cy="31.360001"
     inkscape:window-width="1901"
     inkscape:window-height="1100"
     inkscape:window-x="0"
     inkscape:window-y="0"
     inkscape:window-maximized="1"
     inkscape:current-layer="g1" />
  <g
     inkscape:groupmode="layer"
     inkscape:label="Image"
     id="g1">
    <path
       style="fill:#ff0000;fill-opacity:1"
       d="m 0.51668085,52.092629 c 0,-0.06984 2.24685725,-2.373841 4.99301605,-5.12 l 4.9930151,-4.993016 h 16.865384 16.865385 l 1.1016,-1.52 c 0.60588,-0.836 1.149674,-1.628221 1.20843,-1.760491 0.05876,-0.132271 -0.494878,-0.996271 -1.230299,-1.92 l -1.337129,-1.679509 -17.000339,-0.16 -17.0003385,-0.16 -0.369045,-0.740408 C 9.4033855,33.63198 8.8750445,32.91198 8.4322682,32.439205 7.9894923,31.966429 6.4361165,29.923613 4.9803221,27.899613 3.5245277,25.875613 1.9246562,23.746602 1.425052,23.168478 0.92544785,22.590354 0.51668085,21.986081 0.51668085,21.82565 c 0,-0.160432 1.98000015,-2.930777 4.40000015,-6.156324 C 7.3366811,12.44378 9.5720005,9.4120519 9.8840575,8.9321539 L 10.451434,8.0596118 h 25.752624 c 14.163943,0 25.752623,0.1097424 25.752623,0.2438719 0,0.1341296 -2.197689,2.4381303 -4.883753,5.1200003 l -4.883753,4.876128 H 35.497671 18.806167 l -1.503772,1.760185 c -1.669057,1.953651 -1.714947,1.548635 0.48039,4.239815 l 1.109423,1.360001 H 35.740924 52.58964 l 0.923258,1.36 c 0.507792,0.748 1.859495,2.584 3.003783,4.08 1.144289,1.496 2.473943,3.296 2.954787,4 0.480844,0.704 1.308388,1.784 1.838987,2.4 0.530598,0.616 0.964972,1.192 0.965274,1.28 3.02e-4,0.088 -0.68336,1.00797 -1.519249,2.044378 -0.835889,1.036408 -1.663799,2.116408 -1.839799,2.4 -0.176,0.283592 -1.059165,1.451622 -1.962588,2.595622 -0.903424,1.144 -1.984825,2.584 -2.403113,3.2 -0.418289,0.616 -1.110205,1.588 -1.537591,2.16 l -0.777065,1.04 H 26.376502 c -14.222902,0 -25.85982115,-0.05714 -25.85982115,-0.126984 z"
       id="path1" />
  </g>
</svg>
